<mxfile host="app.diagrams.net" agent="Mozilla/5.0 (Windows NT 10.0; Win64; x64) AppleWebKit/537.36 (KHTML, like Gecko) Chrome/129.0.0.0 Safari/537.36" version="24.7.17">
  <diagram name="Page-1" id="21ORsQWHsIKUVIGTKt5p">
    <mxGraphModel dx="555" dy="754" grid="1" gridSize="10" guides="1" tooltips="1" connect="1" arrows="1" fold="1" page="1" pageScale="1" pageWidth="827" pageHeight="1169" math="0" shadow="0">
      <root>
        <mxCell id="0" />
        <mxCell id="1" parent="0" />
        <mxCell id="0hRfQC4m2FfKHqGu2-95-2" value="Vlada HNŽ" style="ellipse;whiteSpace=wrap;html=1;aspect=fixed;" parent="1" vertex="1">
          <mxGeometry x="340" y="230" width="100" height="100" as="geometry" />
        </mxCell>
        <mxCell id="0hRfQC4m2FfKHqGu2-95-5" value="" style="edgeStyle=orthogonalEdgeStyle;rounded=0;orthogonalLoop=1;jettySize=auto;html=1;" parent="1" source="0hRfQC4m2FfKHqGu2-95-3" target="0hRfQC4m2FfKHqGu2-95-2" edge="1">
          <mxGeometry relative="1" as="geometry" />
        </mxCell>
        <mxCell id="0hRfQC4m2FfKHqGu2-95-3" value="Članovi vlade" style="rounded=0;whiteSpace=wrap;html=1;" parent="1" vertex="1">
          <mxGeometry x="330" y="60" width="120" height="60" as="geometry" />
        </mxCell>
        <mxCell id="0hRfQC4m2FfKHqGu2-95-10" value="Prijava na sustav, kreiranje&lt;div&gt;&amp;nbsp;agendi, pregled dokumenata,&lt;/div&gt;&lt;div&gt;&amp;nbsp;vođenje zapisnika.&lt;br&gt;&lt;/div&gt;" style="text;html=1;align=center;verticalAlign=middle;resizable=0;points=[];autosize=1;strokeColor=none;fillColor=none;" parent="1" vertex="1">
          <mxGeometry x="210" y="125" width="180" height="60" as="geometry" />
        </mxCell>
        <mxCell id="0hRfQC4m2FfKHqGu2-95-14" value="Glavna komponenta koja povezuje&lt;div&gt;&amp;nbsp;različite korisnike&lt;div&gt;i omogućuje upravljanje sjednicama,&amp;nbsp;&lt;/div&gt;&lt;div&gt;dokumentima, i izvještajima.&lt;/div&gt;&lt;/div&gt;" style="text;html=1;align=center;verticalAlign=middle;resizable=0;points=[];autosize=1;strokeColor=none;fillColor=none;" parent="1" vertex="1">
          <mxGeometry x="430" y="120" width="220" height="70" as="geometry" />
        </mxCell>
        <mxCell id="0hRfQC4m2FfKHqGu2-95-15" value="Tajnik/Tajnica" style="rounded=0;whiteSpace=wrap;html=1;" parent="1" vertex="1">
          <mxGeometry x="50" y="250" width="120" height="60" as="geometry" />
        </mxCell>
        <mxCell id="0hRfQC4m2FfKHqGu2-95-16" value="" style="edgeStyle=orthogonalEdgeStyle;rounded=0;orthogonalLoop=1;jettySize=auto;html=1;" parent="1" edge="1" source="0hRfQC4m2FfKHqGu2-95-15">
          <mxGeometry relative="1" as="geometry">
            <mxPoint x="240" y="280" as="sourcePoint" />
            <mxPoint x="340" y="279.5" as="targetPoint" />
          </mxGeometry>
        </mxCell>
        <mxCell id="0hRfQC4m2FfKHqGu2-95-17" value="Upravljanje agendama i zapisnicima,&amp;nbsp;&lt;div&gt;vođenje i arhiviranje sjednica,&lt;/div&gt;&lt;div&gt;&amp;nbsp;upravljanje dokumentima..&lt;/div&gt;" style="text;html=1;align=center;verticalAlign=middle;resizable=0;points=[];autosize=1;strokeColor=none;fillColor=none;" parent="1" vertex="1">
          <mxGeometry x="150" y="220" width="220" height="60" as="geometry" />
        </mxCell>
        <mxCell id="0hRfQC4m2FfKHqGu2-95-18" value="Administrator" style="rounded=0;whiteSpace=wrap;html=1;" parent="1" vertex="1">
          <mxGeometry x="320" y="470" width="120" height="60" as="geometry" />
        </mxCell>
        <mxCell id="0hRfQC4m2FfKHqGu2-95-23" value="" style="edgeStyle=orthogonalEdgeStyle;rounded=0;orthogonalLoop=1;jettySize=auto;html=1;exitX=0.5;exitY=0;exitDx=0;exitDy=0;" parent="1" edge="1" source="0hRfQC4m2FfKHqGu2-95-18">
          <mxGeometry relative="1" as="geometry">
            <mxPoint x="379" y="430" as="sourcePoint" />
            <mxPoint x="379" y="330" as="targetPoint" />
          </mxGeometry>
        </mxCell>
        <mxCell id="0hRfQC4m2FfKHqGu2-95-25" value="&lt;div style=&quot;text-align: center;&quot;&gt;Upravljanje korisnicima, održavanje sustava, kontrola sigurnosti i pristupa.&lt;/div&gt;" style="text;whiteSpace=wrap;html=1;" parent="1" vertex="1">
          <mxGeometry x="384" y="340" width="60" height="110" as="geometry" />
        </mxCell>
        <mxCell id="0hRfQC4m2FfKHqGu2-95-27" value="Građani" style="rounded=0;whiteSpace=wrap;html=1;" parent="1" vertex="1">
          <mxGeometry x="610" y="250" width="120" height="60" as="geometry" />
        </mxCell>
        <mxCell id="0hRfQC4m2FfKHqGu2-95-29" value="&lt;div style=&quot;text-align: center;&quot;&gt;Pregled javnih dokumenata, sjednica i odluka vlade bez potrebe za prijavom.&lt;/div&gt;" style="text;whiteSpace=wrap;html=1;" parent="1" vertex="1">
          <mxGeometry x="450" y="220" width="160" height="70" as="geometry" />
        </mxCell>
        <mxCell id="0hRfQC4m2FfKHqGu2-95-32" value="" style="edgeStyle=orthogonalEdgeStyle;rounded=0;orthogonalLoop=1;jettySize=auto;html=1;exitX=0;exitY=0.75;exitDx=0;exitDy=0;" parent="1" source="0hRfQC4m2FfKHqGu2-95-27" edge="1">
          <mxGeometry relative="1" as="geometry">
            <mxPoint x="590" y="300" as="sourcePoint" />
            <mxPoint x="435" y="300" as="targetPoint" />
            <Array as="points">
              <mxPoint x="523" y="295" />
              <mxPoint x="523" y="301" />
              <mxPoint x="435" y="301" />
            </Array>
          </mxGeometry>
        </mxCell>
      </root>
    </mxGraphModel>
  </diagram>
</mxfile>
